<svg viewBox="570.2008 193.0864 389.6009 484.2455" width="4022.762214620477" height="5000" xmlns="http://www.w3.org/2000/svg" xmlns:xlink="http://www.w3.org/1999/xlink" preserveAspectRatio="none"><defs></defs><style>.a6izo4zJpcolor {fill:#000000;fill-opacity:1;}.aD6z1nYkhcolor {fill:#000000;fill-opacity:1;}.ahMWU8oSqQcolors-0 {fill:#000000;fill-opacity:1;}.as6b1eV35W0filter-floo {flood-color:#D2D2D2;flood-opacity:0.5;}.azXUIdVnOqcolors-0 {fill:#000000;fill-opacity:1;}</style><defs>
      <filter
        x="-1000"
        y="-1000"
        width="5000"
        height="5000"
        id="s6b1eV35W"
        filterUnits="userSpaceOnUse"
        primitiveUnits="userSpaceOnUse"
        color-interpolation-filters="sRGB">
        <feMerge><feMergeNode in="SourceGraphic" /></feMerge>
      </filter></defs><g opacity="1" transform="rotate(0 630.0005 640.6798)">
<svg width="269.9996" height="36.6521" x="630.0005" y="640.6798" version="1.1" preserveAspectRatio="none" viewBox="1.6 -28.6 284.4 38.6">
  <g transform="matrix(1 0 0 1 0 0)" class="a6izo4zJpcolor"><path d="M14.40-24.60L14.40-24.60Q14.40-23.92 14.18-23.38Q13.96-22.84 13.68-22.44L13.68-22.44Q13.36-22 13-21.60L13-21.60L10-22.80Q10.36-23.20 10.68-23.64L10.68-23.64Q10.96-24.04 11.18-24.58Q11.40-25.12 11.40-25.80L11.40-25.80Q11.40-26.84 10.86-27.42Q10.32-28 9.40-28L9.40-28Q8.96-28 8.56-27.78Q8.16-27.56 7.86-27.02Q7.56-26.48 7.38-25.56Q7.20-24.64 7.20-23.20L7.20-23.20L7.20-18.40L12.80-18.40L12.80-17.60L7.20-17.60L7.20-1L9.60-0.40L9.60 0L1.60 0L1.60-0.40L4-1L4-17.60L1.60-17.60L1.60-18.40L4-18.40L4-23.20Q4-25.60 5.50-27.10Q7-28.60 9.40-28.60L9.40-28.60Q10.52-28.60 11.44-28.26Q12.36-27.92 13.02-27.36Q13.68-26.80 14.04-26.08Q14.40-25.36 14.40-24.60Z M25.80-18.40L25.80-18.40Q25.12-18.40 24.42-17.94Q23.72-17.48 23.14-16.42Q22.56-15.36 22.18-13.60Q21.80-11.84 21.80-9.20L21.80-9.20Q21.80-6.56 22.18-4.80Q22.56-3.04 23.14-1.98Q23.72-0.92 24.42-0.46Q25.12 0 25.80 0L25.80 0Q26.48 0 27.18-0.46Q27.88-0.92 28.46-1.98Q29.04-3.04 29.42-4.80Q29.80-6.56 29.80-9.20L29.80-9.20Q29.80-11.84 29.42-13.60Q29.04-15.36 28.46-16.42Q27.88-17.48 27.18-17.94Q26.48-18.40 25.80-18.40ZM25.80-19L25.80-19Q27.28-19 28.66-18.34Q30.04-17.68 31.10-16.42Q32.16-15.16 32.78-13.34Q33.40-11.52 33.40-9.20L33.40-9.20Q33.40-6.88 32.78-5.06Q32.16-3.24 31.10-1.98Q30.04-0.72 28.66-0.06Q27.28 0.60 25.80 0.60L25.80 0.60Q24.28 0.60 22.92-0.06Q21.56-0.72 20.50-1.98Q19.44-3.24 18.82-5.06Q18.20-6.88 18.20-9.20L18.20-9.20Q18.20-11.52 18.82-13.34Q19.44-15.16 20.50-16.42Q21.56-17.68 22.92-18.34Q24.28-19 25.80-19Z M46.20-12.60L46.20-1L48.60-0.40L48.60 0L40.60 0L40.60-0.40L43-1L43-17.40L40.60-18L40.60-18.40L46.20-18.40L46.20-13.60Q46.72-15.08 47.44-16.28L47.44-16.28Q48.08-17.32 49-18.16Q49.92-19 51.20-19L51.20-19Q51.64-19 52.04-18.94Q52.44-18.88 52.76-18.80L52.76-18.80Q53.12-18.68 53.40-18.60L53.40-18.60L52.20-15.60Q51.96-15.72 51.68-15.88L51.68-15.88Q51.44-16 51.10-16.10Q50.76-16.20 50.40-16.20L50.40-16.20Q49.36-16.20 48.56-15.64Q47.76-15.08 47.24-14.40L47.24-14.40Q46.60-13.60 46.20-12.60L46.20-12.60Z M87.40-9.20L76.60-9.20Q76.60-6.64 76.98-4.92Q77.36-3.20 77.98-2.14Q78.60-1.08 79.38-0.64Q80.16-0.20 81-0.20L81-0.20Q82.04-0.20 82.96-0.60Q83.88-1 84.60-1.68Q85.32-2.36 85.78-3.32Q86.24-4.28 86.40-5.40L86.40-5.40L87-5.40Q86.84-4.12 86.30-3.02Q85.76-1.92 84.92-1.12Q84.08-0.32 82.98 0.14Q81.88 0.60 80.60 0.60L80.60 0.60Q79.08 0.60 77.72-0.06Q76.36-0.72 75.30-1.98Q74.24-3.24 73.62-5.06Q73-6.88 73-9.20L73-9.20Q73-11.60 73.60-13.44Q74.20-15.28 75.18-16.50Q76.16-17.72 77.46-18.36Q78.76-19 80.20-19L80.20-19Q81.64-19 82.94-18.36Q84.24-17.72 85.22-16.50Q86.20-15.28 86.80-13.44Q87.40-11.60 87.40-9.20L87.40-9.20ZM80.20-18.40L80.20-18.40Q79.60-18.40 79-18.02Q78.40-17.64 77.88-16.68Q77.36-15.72 77.02-14.10Q76.68-12.48 76.60-10L76.60-10L83.80-10Q83.72-12.48 83.38-14.10Q83.04-15.72 82.52-16.68Q82-17.64 81.40-18.02Q80.80-18.40 80.20-18.40Z M101.60 0.60L94.60-17.40L92.20-18L92.20-18.40L100.20-18.40L100.20-18L98-17.40L103.04-4.40L107.20-17L104.60-18L104.60-18.40L110.60-18.40L110.60-18L108-17L102.20 0.60L101.60 0.60Z M129.80-9.20L119-9.20Q119-6.64 119.38-4.92Q119.76-3.20 120.38-2.14Q121-1.08 121.78-0.64Q122.56-0.20 123.40-0.20L123.40-0.20Q124.44-0.20 125.36-0.60Q126.28-1 127-1.68Q127.72-2.36 128.18-3.32Q128.64-4.28 128.80-5.40L128.80-5.40L129.40-5.40Q129.24-4.12 128.70-3.02Q128.16-1.92 127.32-1.12Q126.48-0.32 125.38 0.14Q124.28 0.60 123 0.60L123 0.60Q121.48 0.60 120.12-0.06Q118.76-0.72 117.70-1.98Q116.64-3.24 116.02-5.06Q115.40-6.88 115.40-9.20L115.40-9.20Q115.40-11.60 116-13.44Q116.60-15.28 117.58-16.50Q118.56-17.72 119.86-18.36Q121.16-19 122.60-19L122.60-19Q124.04-19 125.34-18.36Q126.64-17.72 127.62-16.50Q128.60-15.28 129.20-13.44Q129.80-11.60 129.80-9.20L129.80-9.20ZM122.60-18.40L122.60-18.40Q122-18.40 121.40-18.02Q120.80-17.64 120.28-16.68Q119.76-15.72 119.42-14.10Q119.08-12.48 119-10L119-10L126.20-10Q126.12-12.48 125.78-14.10Q125.44-15.72 124.92-16.68Q124.40-17.64 123.80-18.02Q123.20-18.40 122.60-18.40Z M142.40-12.60L142.40-1L144.80-0.40L144.80 0L136.80 0L136.80-0.40L139.20-1L139.20-17.40L136.80-18L136.80-18.40L142.40-18.40L142.40-13.60Q142.92-15.08 143.64-16.28L143.64-16.28Q144.28-17.32 145.20-18.16Q146.12-19 147.40-19L147.40-19Q147.84-19 148.24-18.94Q148.64-18.88 148.96-18.80L148.96-18.80Q149.32-18.68 149.60-18.60L149.60-18.60L148.40-15.60Q148.16-15.72 147.88-15.88L147.88-15.88Q147.64-16 147.30-16.10Q146.96-16.20 146.60-16.20L146.60-16.20Q145.56-16.20 144.76-15.64Q143.96-15.08 143.44-14.40L143.44-14.40Q142.80-13.60 142.40-12.60L142.40-12.60Z M169.20-17L162.40 3.40Q161.76 5.28 161.16 6.54Q160.56 7.80 159.90 8.58Q159.24 9.36 158.54 9.68Q157.84 10 157 10L157 10Q156.76 10 156.56 9.98Q156.36 9.96 156.16 9.92L156.16 9.92Q155.96 9.88 155.80 9.80L155.80 9.80L155.20 6.80Q155.36 6.88 155.56 6.92L155.56 6.92Q155.76 6.96 155.96 6.98Q156.16 7 156.40 7L156.40 7Q158.80 7 159.90 6.10Q161 5.20 161.60 3.40L161.60 3.40L162.72 0L155.80-17.40L153.40-18L153.40-18.40L161.40-18.40L161.40-18L159.20-17.40L164.28-4.64L168.40-17L165.80-18L165.80-18.40L171.80-18.40L171.80-18L169.20-17Z M197.40 0.60L197.40 0.60Q196.12 0.60 195.20 0.30Q194.28 0 193.72-0.40L193.72-0.40Q193.04-0.84 192.60-1.40L192.60-1.40Q192.44-0.80 191.94-0.28Q191.44 0.24 191 0.40L191 0.40L190.40 0.40Q190.44-0.12 190.48-0.68L190.48-0.68Q190.52-1.16 190.56-1.70Q190.60-2.24 190.60-2.80L190.60-2.80Q190.60-3.40 190.56-4Q190.52-4.60 190.48-5.08L190.48-5.08Q190.44-5.64 190.40-6.20L190.40-6.20L191-6.20Q191.76-3.32 193.32-1.76Q194.88-0.20 197-0.20L197-0.20Q198.68-0.20 199.74-1.24Q200.80-2.28 200.80-3.80L200.80-3.80Q200.80-4.88 200.06-5.68Q199.32-6.48 198.20-7.14Q197.08-7.80 195.80-8.44Q194.52-9.08 193.40-9.88Q192.28-10.68 191.54-11.76Q190.80-12.84 190.80-14.40L190.80-14.40Q190.80-15.28 191.20-16.12Q191.60-16.96 192.30-17.60Q193-18.24 194-18.62Q195-19 196.20-19L196.20-19Q197.24-19 198.02-18.68Q198.80-18.36 199.36-18L199.36-18Q199.96-17.56 200.40-17L200.40-17Q200.56-17.60 201.06-18.12Q201.56-18.64 202-18.80L202-18.80L202.60-18.80Q202.52-18.28 202.48-17.72L202.48-17.72Q202.44-17.24 202.42-16.68Q202.40-16.12 202.40-15.60L202.40-15.60Q202.40-15 202.42-14.38Q202.44-13.76 202.48-13.28L202.48-13.28Q202.52-12.72 202.60-12.20L202.60-12.20L202-12.20Q201.24-15.08 199.76-16.64Q198.28-18.20 196.60-18.20L196.60-18.20Q195.24-18.20 194.32-17.30Q193.40-16.40 193.40-15.20L193.40-15.20Q193.40-14.20 194.16-13.48Q194.92-12.76 196.04-12.14Q197.16-11.52 198.50-10.88Q199.84-10.24 200.96-9.40Q202.08-8.56 202.84-7.40Q203.60-6.24 203.60-4.60L203.60-4.60Q203.60-3.64 203.14-2.70Q202.68-1.76 201.86-1.02Q201.04-0.28 199.90 0.16Q198.76 0.60 197.40 0.60Z M216-18.40L220.60-18.40L220.60-17.60L216-17.60L216-4.84Q216-2.40 216.88-1.30Q217.76-0.20 218.80-0.20L218.80-0.20Q220.16-0.20 221.10-1.22Q222.04-2.24 222.20-4.20L222.20-4.20L222.80-4.20Q222.64-1.92 221.42-0.66Q220.20 0.60 218.40 0.60L218.40 0.60Q215.84 0.60 214.32-0.90Q212.80-2.40 212.80-4.80L212.80-4.80L212.80-17.60L209.40-17.60L209.40-18.40L212.80-18.40L212.80-23L216-25.20L216-18.40Z M236.20-18.40L236.20-18.40Q235.52-18.40 234.82-17.94Q234.12-17.48 233.54-16.42Q232.96-15.36 232.58-13.60Q232.20-11.84 232.20-9.20L232.20-9.20Q232.20-6.56 232.58-4.80Q232.96-3.04 233.54-1.98Q234.12-0.92 234.82-0.46Q235.52 0 236.20 0L236.20 0Q236.88 0 237.58-0.46Q238.28-0.92 238.86-1.98Q239.44-3.04 239.82-4.80Q240.20-6.56 240.20-9.20L240.20-9.20Q240.20-11.84 239.82-13.60Q239.44-15.36 238.86-16.42Q238.28-17.48 237.58-17.94Q236.88-18.40 236.20-18.40ZM236.20-19L236.20-19Q237.68-19 239.06-18.34Q240.44-17.68 241.50-16.42Q242.56-15.16 243.18-13.34Q243.80-11.52 243.80-9.20L243.80-9.20Q243.80-6.88 243.18-5.06Q242.56-3.24 241.50-1.98Q240.44-0.72 239.06-0.06Q237.68 0.60 236.20 0.60L236.20 0.60Q234.68 0.60 233.32-0.06Q231.96-0.72 230.90-1.98Q229.84-3.24 229.22-5.06Q228.60-6.88 228.60-9.20L228.60-9.20Q228.60-11.52 229.22-13.34Q229.84-15.16 230.90-16.42Q231.96-17.68 233.32-18.34Q234.68-19 236.20-19Z M256.60-12.60L256.60-1L259-0.40L259 0L251 0L251-0.40L253.40-1L253.40-17.40L251-18L251-18.40L256.60-18.40L256.60-13.60Q257.12-15.08 257.84-16.28L257.84-16.28Q258.48-17.32 259.40-18.16Q260.32-19 261.60-19L261.60-19Q262.04-19 262.44-18.94Q262.84-18.88 263.16-18.80L263.16-18.80Q263.52-18.68 263.80-18.60L263.80-18.60L262.60-15.60Q262.36-15.72 262.08-15.88L262.08-15.88Q261.84-16 261.50-16.10Q261.16-16.20 260.80-16.20L260.80-16.20Q259.76-16.20 258.96-15.64Q258.16-15.08 257.64-14.40L257.64-14.40Q257-13.60 256.60-12.60L256.60-12.60Z M283.40-17L276.60 3.40Q275.96 5.28 275.36 6.54Q274.76 7.80 274.10 8.58Q273.44 9.36 272.74 9.68Q272.04 10 271.20 10L271.20 10Q270.96 10 270.76 9.98Q270.56 9.96 270.36 9.92L270.36 9.92Q270.16 9.88 270 9.80L270 9.80L269.40 6.80Q269.56 6.88 269.76 6.92L269.76 6.92Q269.96 6.96 270.16 6.98Q270.36 7 270.60 7L270.60 7Q273 7 274.10 6.10Q275.20 5.20 275.80 3.40L275.80 3.40L276.92 0L270-17.40L267.60-18L267.60-18.40L275.60-18.40L275.60-18L273.40-17.40L278.48-4.64L282.60-17L280-18L280-18.40L286-18.40L286-18L283.40-17Z"/></g>
</svg>
</g><g opacity="1" transform="rotate(0 570.2008 497.9148)">
<svg width="389.6009" height="120.3297" x="570.2008" y="497.9148" version="1.1" preserveAspectRatio="none" viewBox="1.2 -28 92.60000000000001 28.6">
  <g transform="matrix(1 0 0 1 0 0)" class="aD6z1nYkhcolor"><path d="M11.60-27.20L11.60-1L14-0.40L14 0L5.80 0L5.80-0.40L8.20-1L8.20-27.20L4-27.20Q4-25.52 3.32-24.08Q2.64-22.64 1.60-21.60L1.60-21.60L1.20-21.60Q1.24-22.12 1.28-22.68L1.28-22.68Q1.32-23.16 1.36-23.70Q1.40-24.24 1.40-24.80L1.40-24.80Q1.40-25.56 1.36-26.14Q1.32-26.72 1.28-27.16L1.28-27.16Q1.24-27.64 1.20-28L1.20-28L18.60-28Q18.52-27.64 18.48-27.16L18.48-27.16Q18.44-26.72 18.42-26.14Q18.40-25.56 18.40-24.80L18.40-24.80Q18.40-24.24 18.42-23.70Q18.44-23.16 18.48-22.68L18.48-22.68Q18.52-22.12 18.60-21.60L18.60-21.60L18.20-21.60Q17.16-22.64 16.48-24.08Q15.80-25.52 15.80-27.20L15.80-27.20L11.60-27.20Z M30.84-13.56L26.40 0.60L25.80 0.60L19.80-17.40L17.40-18L17.40-18.40L25.40-18.40L25.40-18L23.20-17.40L27.36-4.88L31.80-19L32.40-19L37.52-4.88L41.20-17L38.60-18L38.60-18.40L44.60-18.40L44.60-18L42-17L36.60 0.60L36 0.60L30.84-13.56Z M59.80-9.20L49-9.20Q49-6.64 49.38-4.92Q49.76-3.20 50.38-2.14Q51-1.08 51.78-0.64Q52.56-0.20 53.40-0.20L53.40-0.20Q54.44-0.20 55.36-0.60Q56.28-1 57-1.68Q57.72-2.36 58.18-3.32Q58.64-4.28 58.80-5.40L58.80-5.40L59.40-5.40Q59.24-4.12 58.70-3.02Q58.16-1.92 57.32-1.12Q56.48-0.32 55.38 0.14Q54.28 0.60 53 0.60L53 0.60Q51.48 0.60 50.12-0.06Q48.76-0.72 47.70-1.98Q46.64-3.24 46.02-5.06Q45.40-6.88 45.40-9.20L45.40-9.20Q45.40-11.60 46-13.44Q46.60-15.28 47.58-16.50Q48.56-17.72 49.86-18.36Q51.16-19 52.60-19L52.60-19Q54.04-19 55.34-18.36Q56.64-17.72 57.62-16.50Q58.60-15.28 59.20-13.44Q59.80-11.60 59.80-9.20L59.80-9.20ZM52.60-18.40L52.60-18.40Q52-18.40 51.40-18.02Q50.80-17.64 50.28-16.68Q49.76-15.72 49.42-14.10Q49.08-12.48 49-10L49-10L56.20-10Q56.12-12.48 55.78-14.10Q55.44-15.72 54.92-16.68Q54.40-17.64 53.80-18.02Q53.20-18.40 52.60-18.40Z M70 0.60L70 0.60Q68.72 0.60 67.80 0.30Q66.88 0 66.32-0.40L66.32-0.40Q65.64-0.84 65.20-1.40L65.20-1.40Q65.04-0.80 64.54-0.28Q64.04 0.24 63.60 0.40L63.60 0.40L63.00 0.40Q63.04-0.12 63.08-0.68L63.08-0.68Q63.12-1.16 63.16-1.70Q63.20-2.24 63.20-2.80L63.20-2.80Q63.20-3.40 63.16-4Q63.12-4.60 63.08-5.08L63.08-5.08Q63.04-5.64 63.00-6.20L63.00-6.20L63.60-6.20Q64.36-3.32 65.92-1.76Q67.48-0.20 69.60-0.20L69.60-0.20Q71.28-0.20 72.34-1.24Q73.40-2.28 73.40-3.80L73.40-3.80Q73.40-4.88 72.66-5.68Q71.92-6.48 70.80-7.14Q69.68-7.80 68.40-8.44Q67.12-9.08 66-9.88Q64.88-10.68 64.14-11.76Q63.40-12.84 63.40-14.40L63.40-14.40Q63.40-15.28 63.80-16.12Q64.20-16.96 64.90-17.60Q65.60-18.24 66.60-18.62Q67.60-19 68.80-19L68.80-19Q69.84-19 70.62-18.68Q71.40-18.36 71.96-18L71.96-18Q72.56-17.56 73-17L73-17Q73.16-17.60 73.66-18.12Q74.16-18.64 74.60-18.80L74.60-18.80L75.20-18.80Q75.12-18.28 75.08-17.72L75.08-17.72Q75.04-17.24 75.02-16.68Q75-16.12 75-15.60L75-15.60Q75-15 75.02-14.38Q75.04-13.76 75.08-13.28L75.08-13.28Q75.12-12.72 75.20-12.20L75.20-12.20L74.60-12.20Q73.84-15.08 72.36-16.64Q70.88-18.20 69.20-18.20L69.20-18.20Q67.84-18.20 66.92-17.30Q66-16.40 66-15.20L66-15.20Q66-14.20 66.76-13.48Q67.52-12.76 68.64-12.14Q69.76-11.52 71.10-10.88Q72.44-10.24 73.56-9.40Q74.68-8.56 75.44-7.40Q76.20-6.24 76.20-4.60L76.20-4.60Q76.20-3.64 75.74-2.70Q75.28-1.76 74.46-1.02Q73.64-0.28 72.50 0.16Q71.36 0.60 70 0.60Z M93.80-9.20L83.00-9.20Q83.00-6.64 83.38-4.92Q83.76-3.20 84.38-2.14Q85.00-1.08 85.78-0.64Q86.56-0.20 87.40-0.20L87.40-0.20Q88.44-0.20 89.36-0.60Q90.28-1 91.00-1.68Q91.72-2.36 92.18-3.32Q92.64-4.28 92.80-5.40L92.80-5.40L93.40-5.40Q93.24-4.12 92.70-3.02Q92.16-1.92 91.32-1.12Q90.48-0.32 89.38 0.14Q88.28 0.60 87.00 0.60L87.00 0.60Q85.48 0.60 84.12-0.06Q82.76-0.72 81.70-1.98Q80.64-3.24 80.02-5.06Q79.40-6.88 79.40-9.20L79.40-9.20Q79.40-11.60 80.00-13.44Q80.60-15.28 81.58-16.50Q82.56-17.72 83.86-18.36Q85.16-19 86.60-19L86.60-19Q88.04-19 89.34-18.36Q90.64-17.72 91.62-16.50Q92.60-15.28 93.20-13.44Q93.80-11.60 93.80-9.20L93.80-9.20ZM86.60-18.40L86.60-18.40Q86.00-18.40 85.40-18.02Q84.80-17.64 84.28-16.68Q83.76-15.72 83.42-14.10Q83.08-12.48 83.00-10L83.00-10L90.20-10Q90.12-12.48 89.78-14.10Q89.44-15.72 88.92-16.68Q88.40-17.64 87.80-18.02Q87.20-18.40 86.60-18.40Z"/></g>
</svg>
</g><g opacity="0.2" transform="rotate(0 708.1363 344.4872)">
<svg width="113.7275" height="84.7569" x="708.1363" y="344.4872" version="1.1" preserveAspectRatio="none" viewBox="2.700000047683716 15 95 70.80000305175781">
  <g transform="matrix(1 0 0 1 0 0)" class="azXUIdVnOqcolors-0"><path d="M93.6,31.6v54.2h4.1V31.6H93.6z M96.4,85.4h-1.5V31.9h1.5V85.4z"></path><path d="M20.2,34v51.7h15.7V34H20.2z M34.9,83.7H21.2v-6.5h13.7V83.7z"></path><path d="M12.1,26.5v59.2h5.7V26.5H12.1z M17,30.4h-4.3v-1.8H17V30.4z"></path><path d="M71.9,26.9v58.8h7.3V26.9H71.9z M72.5,81.8h5.8v2.1h-5.8V81.8z M72.5,80.2h5.8V81h-5.8V80.2z M72.5,37.4h5.8  v0.8h-5.8V37.4z M72.5,34.4h5.8v2.1h-5.8V34.4z"></path><path d="M56.3,20.7v65h11.9v-65H56.3z M57.8,23h8.9v2h-8.9V23z"></path><path d="M81.9,15v70.8h9.6V15H81.9z M82.4,82.4h8.7v2.3h-8.7V82.4z M82.4,80.1h8.7v1.4h-8.7V80.1z"></path><path d="M2.7,21.4v64.3h7.3V21.4H2.7z M9.5,83.9H3.7v-2.1h5.8V83.9z M9.5,81H3.7v-0.8h5.8V81z M9.5,32.6H3.7v-0.8  h5.8V32.6z M9.5,31H3.7V29h5.8V31z"></path><path d="M38.6,31.6v54.2h4.1V31.6H38.6z M39.9,31.9h1.5v53.5h-1.5V31.9z"></path><path d="M47.4,41.6l-3.9,43.7l8.1,0.4L55.5,42L47.4,41.6z M48.9,42.3l5.1,0.4l-3.8,42.6l-5.1-0.4L48.9,42.3z"></path></g>
</svg>
</g><g opacity="0.2" transform="rotate(0 692.9265 193.0864)">
<svg width="144.1472" height="287.0539" x="692.9265" y="193.0864" version="1.1" preserveAspectRatio="none" viewBox="0 0 41.947998046875 83.53500366210938">
  <g transform="matrix(1 0 0 1 0 0)" class="ahMWU8oSqQcolors-0"><path d="M34.017,83.535H7.984c-1.825,0-3.226-0.355-4.293-0.946l0,0c-1.068-0.59-1.791-1.413-2.263-2.301l0,0  c-0.944-1.771-0.931-3.777-0.934-4.901l0,0V8.149c0-0.842-0.003-2.183,0.39-3.546l0,0c0.389-1.362,1.201-2.77,2.807-3.656l0,0  C4.758,0.355,6.159,0,7.984,0l0,0h26.033c1.824,0,3.226,0.355,4.293,0.946l0,0c1.069,0.59,1.791,1.414,2.263,2.3l0,0  c0.944,1.773,0.932,3.779,0.935,4.903l0,0v67.238c-0.001,0.843,0.003,2.184-0.39,3.546l0,0c-0.39,1.362-1.201,2.771-2.808,3.656l0,0  c-1.066,0.591-2.467,0.946-4.29,0.946l0,0C34.019,83.535,34.018,83.535,34.017,83.535L34.017,83.535z M4.068,1.629  C3.14,2.145,2.531,2.839,2.115,3.615l0,0C1.284,5.162,1.271,7.034,1.274,8.149l0,0v67.238c-0.001,0.837,0.003,2.098,0.358,3.33l0,0  c0.36,1.234,1.046,2.418,2.436,3.189l0,0c0.929,0.515,2.19,0.849,3.916,0.849l0,0h26.033c1.726,0,2.987-0.334,3.916-0.849l0,0  c0.929-0.516,1.536-1.21,1.952-1.985l0,0c0.831-1.548,0.845-3.42,0.842-4.534l0,0V8.149c0.001-0.837-0.004-2.097-0.359-3.331l0,0  c-0.359-1.235-1.046-2.417-2.435-3.189l0,0c-0.929-0.514-2.19-0.849-3.916-0.849l0,0H7.984C6.258,0.781,4.997,1.115,4.068,1.629  L4.068,1.629z"></path><path d="M17.715,77.608c0-1.815,1.472-3.285,3.285-3.285l0,0c1.814,0,3.285,1.47,3.285,3.285l0,0  c0,1.813-1.471,3.284-3.285,3.284l0,0C19.187,80.893,17.715,79.422,17.715,77.608L17.715,77.608z M18.148,77.608  c0.004,1.574,1.277,2.847,2.852,2.851l0,0c1.574-0.004,2.849-1.276,2.851-2.851l0,0c-0.002-1.575-1.276-2.85-2.851-2.853l0,0  C19.426,74.759,18.152,76.033,18.148,77.608L18.148,77.608z"></path><path d="M0,30.787v-5.354c0-0.335,0.272-0.607,0.607-0.607l0,0c0.335,0,0.607,0.271,0.607,0.607l0,0v5.354  c0,0.334-0.271,0.607-0.607,0.607l0,0C0.272,31.395,0,31.122,0,30.787L0,30.787z"></path><path d="M0,22.391v-5.354c0-0.335,0.272-0.606,0.607-0.606l0,0c0.335,0,0.607,0.271,0.607,0.606l0,0v5.354  c0,0.335-0.271,0.607-0.607,0.607l0,0C0.272,22.999,0,22.727,0,22.391L0,22.391z"></path><path d="M0,12.901v-2.92c0-0.335,0.272-0.607,0.607-0.607l0,0c0.335,0,0.607,0.271,0.607,0.607l0,0v2.92  c0,0.335-0.271,0.607-0.607,0.607l0,0C0.272,13.508,0,13.236,0,12.901L0,12.901z"></path><path d="M40.734,22.299v-5.354c0-0.335,0.272-0.607,0.607-0.607l0,0c0.336,0,0.607,0.271,0.607,0.607l0,0v5.354  c0,0.335-0.271,0.607-0.607,0.607l0,0C41.007,22.906,40.734,22.634,40.734,22.299L40.734,22.299z"></path><path d="M2.294,73.281V9.894h37.412v63.171v0.217H2.294L2.294,73.281z M39.489,73.064v-0.217V73.064L39.489,73.064z   M2.728,72.848h36.545v-62.52H2.728V72.848L2.728,72.848z"></path><circle cx="21" cy="2.691" r="0.58"></circle><path d="M17.533,5.181c-0.216,0-0.391-0.174-0.391-0.391l0,0c0-0.215,0.175-0.39,0.391-0.39l0,0h6.935  c0.216,0,0.39,0.175,0.39,0.39l0,0c0,0.216-0.174,0.391-0.39,0.391l0,0H17.533L17.533,5.181z"></path><circle cx="14.384" cy="4.791" r="0.73"></circle></g>
</svg>
</g></svg>